<svg xmlns="http://www.w3.org/2000/svg" width="43.527" height="33.288" viewBox="0 0 43.527 33.288"><defs><style>.a{fill:#fff;}</style></defs><g transform="translate(0)"><g transform="translate(0 0)"><path class="a" d="M52.507,95.922a11,11,0,1,0,2.264,15.385A10.994,10.994,0,0,0,52.507,95.922ZM42.181,109.809a6.316,6.316,0,1,1,8.837-1.3A6.319,6.319,0,0,1,42.181,109.809Z" transform="translate(-32.431 -91.231)"/><g transform="translate(8.596 8.596)"><path class="a" d="M112.6,164.518a4.922,4.922,0,1,0,1.01,6.887A4.93,4.93,0,0,0,112.6,164.518Zm-5.154,6.93a3.715,3.715,0,1,1,5.2-.766A3.721,3.721,0,0,1,107.45,171.448Z" transform="translate(-104.747 -163.547)"/></g><circle class="a" cx="2.394" cy="2.394" r="2.394" transform="translate(11.116 11.116)"/><g transform="translate(0 0)"><path class="a" d="M210.691,94.726,207.8,92.575l2.481-2.925a.713.713,0,0,1,.975-.122l1.35,1a.728.728,0,0,1,.157.975Z" transform="translate(-190.232 -87.249)"/><path class="a" d="M261.222,186.743l-.522-3.561,3.822-.313a.723.723,0,0,1,.784.6l.244,1.663a.726.726,0,0,1-.575.8Z" transform="translate(-238.526 -172.588)"/><path class="a" d="M230.6,269.582l2.142-2.882,2.925,2.481a.713.713,0,0,1,.122.975l-1,1.35a.728.728,0,0,1-.975.157Z" transform="translate(-211.047 -249.123)"/><path class="a" d="M153.9,320.022l3.561-.522.313,3.822a.723.723,0,0,1-.6.784l-1.663.244a.726.726,0,0,1-.8-.575Z" transform="translate(-141.025 -297.326)"/><path class="a" d="M58.418,289.4l2.882,2.142-2.481,2.925a.713.713,0,0,1-.975.122l-1.35-1a.728.728,0,0,1-.157-.975Z" transform="translate(-51.846 -269.847)"/><path class="a" d="M10.356,212.7l.522,3.561-3.822.313a.723.723,0,0,1-.784-.6l-.244-1.663a.726.726,0,0,1,.575-.8Z" transform="translate(-6.021 -199.825)"/><path class="a" d="M36.017,117.218,33.875,120.1l-2.925-2.481a.713.713,0,0,1-.122-.975l1-1.35a.728.728,0,0,1,.975-.157Z" transform="translate(-28.54 -110.646)"/><path class="a" d="M127.943,69.156l-3.561.522-.313-3.822a.723.723,0,0,1,.6-.784l1.663-.244a.726.726,0,0,1,.8.575Z" transform="translate(-113.788 -64.821)"/></g></g><g transform="translate(24.311 14.072)"><path class="a" d="M318.288,248.5a7.822,7.822,0,1,0,1.611,10.944A7.824,7.824,0,0,0,318.288,248.5Zm-7.348,9.882a4.487,4.487,0,1,1,6.277-.923A4.489,4.489,0,0,1,310.94,258.387Z" transform="translate(-304.014 -245.175)"/><g transform="translate(6.116 6.116)"><path class="a" d="M361.074,297.381a3.5,3.5,0,1,0,.723,4.893A3.5,3.5,0,0,0,361.074,297.381Zm-3.665,4.928a2.644,2.644,0,1,1,3.7-.54A2.649,2.649,0,0,1,357.408,302.309Z" transform="translate(-355.492 -296.692)"/></g><circle class="a" cx="1.698" cy="1.698" r="1.698" transform="translate(7.91 7.91)"/><g transform="translate(0 0)"><path class="a" d="M430.846,247.77l-2.046-1.524,1.767-2.081a.516.516,0,0,1,.7-.087l.958.714a.514.514,0,0,1,.113.688Z" transform="translate(-416.302 -242.455)"/><path class="a" d="M466.674,313.127l-.374-2.534,2.716-.218a.525.525,0,0,1,.557.427l.174,1.184a.509.509,0,0,1-.409.566Z" transform="translate(-450.537 -303.067)"/><path class="a" d="M444.9,371.955l1.524-2.055,2.081,1.767a.516.516,0,0,1,.087.7l-.714.958a.514.514,0,0,1-.688.113Z" transform="translate(-431 -357.41)"/><path class="a" d="M390.4,407.874l2.534-.374.218,2.716a.525.525,0,0,1-.427.557l-1.184.174a.509.509,0,0,1-.566-.409Z" transform="translate(-381.245 -391.737)"/><path class="a" d="M322.5,386.1l2.055,1.524-1.767,2.081a.516.516,0,0,1-.7.087l-.958-.714a.514.514,0,0,1-.113-.688Z" transform="translate(-317.824 -372.2)"/><path class="a" d="M288.327,331.6l.374,2.534-2.716.218a.525.525,0,0,1-.557-.427l-.174-1.184a.509.509,0,0,1,.409-.566Z" transform="translate(-285.249 -322.445)"/><path class="a" d="M306.57,263.7l-1.524,2.055-2.081-1.767a.516.516,0,0,1-.087-.7l.714-.958a.514.514,0,0,1,.688-.113Z" transform="translate(-301.255 -259.024)"/><path class="a" d="M371.927,229.527l-2.534.374-.218-2.716a.525.525,0,0,1,.427-.557l1.184-.174a.509.509,0,0,1,.566.409Z" transform="translate(-361.867 -226.449)"/></g></g></g></svg>